<svg xmlns="http://www.w3.org/2000/svg" width="40" height="40" viewBox="0 0 837 840"><path fill="#21222b" d="m158.164 2.74 7.039-.012q8.625-.014 17.249-.005c6.893.004 13.787-.003 20.68-.01 14.291-.016 28.582-.018 42.872-.015a59652 59652 0 0 0 45.058-.01q33.36-.013 66.72-.008h2.54l20.407.005q39.79.007 79.58-.021a107849 107849 0 0 1 101.412-.026q17.714 0 35.427-.016 20.157-.019 40.313-.002c6.852.006 13.703.008 20.555-.005q9.42-.014 18.842.007 3.396.003 6.791-.008c16.807-.055 32.71 1.315 48.914 6.073l2.645.773C755.988 15.791 774.165 27.286 790 42l1.511 1.395C817.405 67.54 830.695 99.536 836 134h1a382459 382459 0 0 1 .166 248.028q.02 41.77.063 83.537a110478 110478 0 0 1 .056 98.028v2.415q.008 19.197.035 38.394.027 19.323.02 38.648c-.002 6.973.001 13.947.018 20.92q.02 9.592.005 19.185-.003 3.454.012 6.91c.068 17.71-.822 35.273-6.562 52.185l-.92 2.775c-12.586 36.76-38.516 66.742-72.768 84.725A691 691 0 0 1 750 833l-1.941.904c-14.256 6.5-27.304 7.085-42.794 6.965q-3.846.01-7.693.026-8.318.029-16.635-.007a4228 4228 0 0 0-24.736-.011c-14.73.025-29.46.01-44.19-.02a17577 17577 0 0 0-38.66-.037h-2.595l-10.43.002c-32.575.006-65.15-.027-97.725-.079a47868 47868 0 0 0-92.346-.055h-2.784l-13.874.003h-2.765c-24.194.006-48.387-.009-72.581-.03l-2.609-.002-2.603-.002-2.599-.003-5.181-.004q-18.043-.015-36.085-.013c-15.498 0-30.996-.011-46.495-.046q-12.286-.03-24.573-.018c-6.12.005-12.24-.01-18.36-.035q-3.71-.01-7.418.001c-12.192.034-22.885.035-34.328-4.539-1.64-.439-3.285-.86-4.937-1.25-6.91-2.043-12.928-6.072-19.063-9.75a992 992 0 0 0-3.54-2.004C46.889 809.4 26.883 788.061 16 763l-1.445-3.184C2.68 733.054.839 707.122.88 678.215l-.003-6.951q-.002-9.516.007-19.032.005-9.22.002-18.437-.001-18.848.008-37.694a95881 95881 0 0 0 .012-51.444q.004-41.734.019-83.468.014-40.536.02-81.073v-2.525l.013-76.261v-2.376Q.974 220.477 1 142h1v-12h1l.664-3.742C9.236 96.015 21.21 70.708 42 48l2.273-2.492C64.633 24.239 92.191 10.426 121 5l2.658-.509c11.486-1.915 22.893-1.773 34.506-1.752"/><path fill="#cb7f5d" d="M415.45 98.664c2.813.024 5.626.02 8.44.014 15.523.023 30.45 1.51 45.673 4.634l3.247.666C502.08 110.142 529.168 123.037 553 141l3.02 2.273C567.226 152.101 577.553 162.5 586 174l1.719 2.309C601.57 195.482 612.767 217.475 620 240l.724 2.242c7.194 22.736 11.592 46.2 13.982 69.902.167 1.62.34 3.241.531 4.86.642 5.47 1.052 10.92 1.306 16.422l.128 2.72c.31 7.194.435 14.384.505 21.584l.036 3.325c.048 4.498.096 8.995.114 13.493.08 16.835 1.74 32.884 4.674 49.452q.57 3.315 1.13 6.63l.506 2.974C644 436 644 436 644 438h2l1.188 2.875c1.716 4.051 3.753 7.913 5.824 11.793C654 455 654 455 654 459h2c.677 1.245 1.34 2.496 2 3.75l1.125 2.11C660 467 660 467 660 471l3 1c.957 2.047.957 2.047 1.813 4.75a89 89 0 0 0 5 11.937C674.5 498.671 677.23 509.355 680 520l.6 2.249c6.75 26.348 3.253 56.317-5.81 81.479-1.064 3.06-1.943 6.146-2.79 9.272h-2l-.41 1.8c-1.916 7.378-5.203 13.012-9.59 19.2l-2.117 3.023c-9.94 13.554-24.94 32.37-41.723 37.047L613 675l-1 3h-3v2q-3.124.97-6.25 1.937l-3.516 1.09c-8.4 2.527-16.883 3.313-25.234-.027-5.223-3.037-7.4-7.337-9-13-1.482-9.186.766-16.398 6-24 2.753-3.025 5.765-5.508 9-8 6.846-5.385 12.968-10.853 18.71-17.422C601 618 601 618 603.599 615.465c12.56-12.887 14.57-30.674 14.668-47.817-.313-3.116-1.215-5.7-2.266-8.648a1197 1197 0 0 1-2.902-10.563c-1.514-4.74-3.738-8.931-6.285-13.187C605 532 605 532 605 530h-2c-3.19-4.005-5.202-7.944-6-13a401 401 0 0 0-3-6v-2l-2.375-.813C589 507 589 507 587 504c-.125-2.688-.125-2.688 0-5h-3a89 89 0 0 1-4.5-7.188l-1.184-2.04a548 548 0 0 1-2.273-3.961 161 161 0 0 0-2.824-4.674C572 479 572 479 572 477h-2c-.23-.606-.461-1.212-.7-1.836-1.724-4.43-3.531-8.672-5.8-12.852-2.102-4.07-3.252-7.983-4.312-12.437-2.794-11.06-7.147-22.543-16.329-29.809-5.602-3.213-12.629-2.613-18.859-2.066-3.237.984-6.059 2.345-9 4l-2.18 1.02c-2.388 1.286-2.762 2.512-3.82 4.98l-1.523 2.21c-6.123 11.567.61 28.494 3.803 40.082.853 3.21 1.57 6.436 2.268 9.681.673 3.017 1.501 5.986 2.327 8.964a478 478 0 0 1 4.375 17.5l.53 2.221c1.107 4.905 1.282 9.319 1.22 14.342a176 176 0 0 0 1 5c.493 4.224.857 8.461 1.25 12.695l.25 2.617.219 2.364c.24 2.32.24 2.32.788 4.543.705 3.977.77 7.925.88 11.957l.077 2.679q.078 2.8.149 5.6c.074 2.838.165 5.675.256 8.512q.073 2.73.143 5.459l.088 2.545c.114 5.403-.635 9.828-2.1 15.029a89 89 0 0 0-.64 4.602c-1.487 12.3-4.02 23.958-7.588 35.821a454 454 0 0 0-2.073 7.19c-6.178 20.982-18.381 41.8-33.699 57.387l-1.996 2.035c-6.35 6.019-14.176 9.632-23.004 9.965-2.444-.486-4.635-1.18-7-2v-2l-2.25-.813c-4.044-1.746-6.182-3.082-8.234-7.078-3.185-8.453-4.976-14.458-1.516-23.109l.742-1.918c1.938-4.707 4.344-8.91 7.07-13.207 10.483-16.73 16.387-33.455 16.375-53.313l.002-3.48c-.054-8.837-.715-17.368-2.189-26.082h-2l-.227-1.695c-3.23-19.697-15.618-39.097-24.523-56.743-3.286-6.523-6.485-13.068-9.437-19.75l-.884-1.98c-1.212-2.8-1.929-4.744-1.929-7.832h-2l-.254 1.93c-1.047 4.31-2.848 8.168-4.683 12.195l-1.214 2.68c-2.724 5.94-5.64 11.747-8.724 17.507-17.006 31.772-34.398 67.191-23.437 104A250 250 0 0 0 383 646l1.125 3.3c2.76 7.337 6.809 13.997 10.866 20.677 6.2 10.327 10.073 19.563 7.42 31.726-2.608 7.832-8.043 13.018-15.286 16.797-11.028 1.764-18.609-.073-27.625-6.563-26.604-21.8-40.026-62.69-46.5-94.937l-.562-2.747c-5.16-26.507-4.252-56.789.562-83.253l.65-3.587c2.89-15.608 6.263-31.075 10.35-46.413l1.059-4.023 1.003-3.79.958-3.617a249 249 0 0 1 2.117-7.265c3.16-10.626 5.497-22.344.925-32.93-3.414-5.802-8.758-9.274-15.062-11.375-7.724-.492-15.911-.843-22.5 3.738-6.887 6.23-10.02 15.088-12.5 23.809-6.533 22.558-18.8 42.26-31.52 61.787-16.072 24.743-32.322 50.954-26.867 81.717C225.304 604.449 233.284 616.61 244 628l1.486 1.583c5.191 5.466 10.482 10.481 16.452 15.104 5.73 4.621 9.334 8.797 10.527 16.196.38 7.254-1.045 13.272-5.465 19.117-6.812 5.732-15.5 5.708-23.973 5.227-9.47-1.059-18.276-5.943-26.027-11.227l-2.637-1.773C207.003 667.082 200.45 661.228 194 655l-1.71-1.636c-26.918-26.252-39.251-61.855-39.727-98.802-.01-28.294 8.494-54.206 20.437-79.562l2.227-4.781c3.234-6.91 6.529-13.781 9.997-20.577 5.387-10.588 9.616-20.9 12.026-32.58l.495-2.381c2.448-12.802 2.413-25.87 2.642-38.855.745-40.097 3.14-79.935 13.613-118.826l.788-2.944c7.07-25.871 17.544-51.17 33.212-73.056l2.184-3.05A194 194 0 0 1 266 159l2.52-2.68c25.023-25.865 58.477-42.906 93.23-51.32l2.957-.75c16.806-4.08 33.478-5.742 50.742-5.586"/><path fill="#cacaca" d="M2 130c2.688 2.688 2.244 4.746 2.267 8.4l-.014 2.757.01 2.927c.008 3.273.001 6.547-.005 9.82l.011 7.067q.012 7.713.006 15.425-.005 11.47.01 22.94.02 19.298.02 38.597c.001 17.584.016 35.168.035 52.753l.028 27.057a159892 159892 0 0 1 .047 61.194 323495 323495 0 0 1 .041 80.5l.001 2.582c.01 19.466.02 38.932.04 58.398L4.5 522.9a163897 163897 0 0 0 .041 36.623l.003 2.4c.014 12.73.016 25.46.014 38.189q-.002 19.215.027 38.432.017 10.403.007 20.805-.01 9.537.017 19.075.006 3.436-.004 6.873c-.112 40.949 12.654 76.864 41.645 106.39 25.086 24.854 60.03 40.533 95.545 40.439l2.914.004c3.224.004 6.447 0 9.67-.003l7.004.005q8.614.005 17.23 0c6.88-.004 13.761 0 20.642.002q20.226.007 40.453.002 17.708-.004 35.415-.002h2.373l9.538.001q44.748.004 89.494-.005 39.728-.007 79.456 0a314655 314655 0 0 0 98.822.004h2.37q17.685-.002 35.37.002 20.127.005 40.252-.003 10.266-.005 20.53 0 9.407.004 18.813-.004 3.394-.001 6.788.002c24.724.197 24.724.197 48.946-4.193l3.379-.945C751.887 821.021 769.659 810.932 786 797l1.91-1.543C806.943 779.855 821.42 754.562 828 731l.992-3.465c4.884-17.755 5.304-35.489 5.28-53.805l.015-6.926c.014-6.299.016-12.597.015-18.896.001-6.109.012-12.217.023-18.326q.031-18.727.041-37.456.011-18.532.037-37.066l.003-2.333.017-11.735a163434 163434 0 0 0 .105-88.009l.002-2.508.013-12.565.002-2.517a325867 325867 0 0 1 .167-141.008q.038-26.721.06-53.443.015-18.605.04-37.209.014-10.08.018-20.162.005-9.22.02-18.44.005-3.343.005-6.685 0-4.53.012-9.06l-.005-2.644c.017-4.36.263-8.448 1.138-12.742h1a382459 382459 0 0 1 .166 248.028q.02 41.77.063 83.537a110478 110478 0 0 1 .056 98.028v2.415q.008 19.197.035 38.394.027 19.323.02 38.648c-.002 6.973.001 13.947.018 20.92q.02 9.592.005 19.185-.003 3.454.012 6.91c.068 17.71-.822 35.273-6.562 52.185l-.92 2.775c-12.586 36.76-38.516 66.742-72.768 84.725A691 691 0 0 1 750 833l-1.941.904c-14.256 6.5-27.304 7.085-42.794 6.965q-3.846.01-7.693.026-8.318.029-16.635-.007a4228 4228 0 0 0-24.736-.011c-14.73.025-29.46.01-44.19-.02a17577 17577 0 0 0-38.66-.037h-2.595l-10.43.002c-32.575.006-65.15-.027-97.725-.079a47868 47868 0 0 0-92.346-.055h-2.784l-13.874.003h-2.765c-24.194.006-48.387-.009-72.581-.03l-2.609-.002-2.603-.002-2.599-.003-5.181-.004q-18.043-.015-36.085-.013c-15.498 0-30.996-.011-46.495-.046q-12.286-.03-24.573-.018c-6.12.005-12.24-.01-18.36-.035q-3.71-.01-7.418.001c-12.192.034-22.885.035-34.328-4.539-1.64-.439-3.285-.86-4.937-1.25-6.91-2.043-12.928-6.072-19.063-9.75a992 992 0 0 0-3.54-2.004C46.889 809.4 26.883 788.061 16 763l-1.445-3.184C2.68 733.054.839 707.122.88 678.215l-.003-6.951q-.002-9.516.007-19.032.005-9.22.002-18.437-.001-18.848.008-37.694.01-18.653.011-37.304v-2.346l.001-11.794q.004-41.734.019-83.468.014-40.536.02-81.073v-2.525l.013-76.261v-2.376Q.974 220.477 1 142h1z"/><path fill="#2f3040" d="m334.188 250.75 2.462-.062c11.649-.075 20.51 4.753 29.038 12.437 8.772 9.12 10.794 20.187 10.582 32.281-.477 11.534-6.155 19.934-14.473 27.633-6.805 5.592-13.912 9.326-22.797 9.961l-1.977.191c-11.12.627-21.718-3.914-30.109-10.937-7.892-7.29-12.457-16.605-13.098-27.324-.273-13.88 2.807-23.468 12.434-33.743 8.293-7.928 16.816-10.368 27.938-10.437"/><path fill="#2c2d3c" d="M527.813 258.313c8.24 6.915 14.11 14.96 16.187 25.687.985 11.814-.364 23.798-8.242 33.16-7.85 8.216-16.171 14.743-27.953 15.078-14.597.33-24.058-2.045-34.903-12.203-8.886-9.185-11.619-18.648-11.426-31.16.538-12.342 6.012-20.834 14.899-29.125 14.268-12.226 36.363-12.519 51.438-1.437"/><path fill="#dbdadb" d="M2 130c2.688 2.688 2.244 4.746 2.267 8.4l-.014 2.757.01 2.927c.008 3.273.001 6.547-.005 9.82l.011 7.067q.012 7.713.006 15.425-.005 11.47.01 22.94.02 19.298.02 38.597c.001 17.584.016 35.168.035 52.753l.028 27.057a159892 159892 0 0 1 .047 61.194 323495 323495 0 0 1 .041 80.5l.001 2.582c.01 19.466.02 38.932.04 58.398L4.5 522.9a163897 163897 0 0 0 .041 36.623l.003 2.4c.014 12.73.016 25.46.014 38.189q-.002 19.215.027 38.432.017 10.403.007 20.805-.01 9.537.017 19.075.006 3.436-.004 6.873c-.112 40.949 12.654 76.864 41.645 106.39 21.85 21.647 48 32.79 77.75 39.313v3h4l2 6c-11.534.438-21.054.086-32-4q-2.466-.638-4.937-1.25c-6.91-2.043-12.928-6.072-19.063-9.75a992 992 0 0 0-3.54-2.004C46.889 809.4 26.883 788.061 16 763l-1.445-3.184C2.68 733.054.839 707.122.88 678.215l-.003-6.951q-.002-9.516.007-19.032.005-9.22.002-18.437-.001-18.848.008-37.694.01-18.653.011-37.304v-2.346l.001-11.794q.004-41.734.019-83.468.014-40.536.02-81.073v-2.525l.013-76.261v-2.376Q.974 220.477 1 142h1z"/><path fill="#dfdfe0" d="M836 134h1a382459 382459 0 0 1 .166 248.028q.02 41.77.063 83.537a110478 110478 0 0 1 .056 98.028v2.415q.008 19.197.035 38.394.027 19.323.02 38.648c-.002 6.973.001 13.947.018 20.92q.02 9.592.005 19.185-.003 3.454.012 6.91c.068 17.71-.822 35.273-6.562 52.185l-.92 2.775c-12.586 36.76-38.516 66.742-72.768 84.725-1.738.816-3.476 1.63-5.23 2.409q-1.99.885-3.961 1.811c-13.659 6.32-26.026 6.9-40.934 6.03 6.592-8.35 13.857-10.83 24-13.312 20.796-5.157 38.762-15.844 55-29.688l1.91-1.543C806.943 779.855 821.42 754.562 828 731l.992-3.465c4.884-17.755 5.304-35.489 5.28-53.805l.015-6.926c.014-6.299.016-12.597.015-18.896.001-6.109.012-12.217.023-18.326q.031-18.727.041-37.456.011-18.532.037-37.066l.003-2.333.017-11.735a163434 163434 0 0 0 .12-103.082l.002-2.517a325867 325867 0 0 1 .135-117.173l.003-2.407.029-21.428q.038-26.721.06-53.443.015-18.605.04-37.209.014-10.08.018-20.162.005-9.22.02-18.44.005-3.343.005-6.685 0-4.53.012-9.06l-.005-2.644c.017-4.36.263-8.448 1.138-12.742"/><path fill="#b5b6b8" d="M2 130c2.363 2.363 2.25 2.792 2.255 5.993l.018 2.55-.011 2.824.012 2.995c.01 3.35.008 6.7.004 10.05l.018 7.231q.019 7.891.02 15.783c.001 7.822.014 15.645.03 23.468q.036 19.735.05 39.472a52912 52912 0 0 0 .069 53.883q.068 43.707.113 87.414a243890 243890 0 0 0 .146 113.857l.078 56.02C4.878 606.36 4.94 661.18 5 716c-3-2-3-2-3.507-4.238-.651-11.18-.629-22.352-.613-33.547l-.003-6.951q-.002-9.516.007-19.032.005-9.22.002-18.437-.001-18.848.008-37.694.01-18.653.011-37.304v-2.346l.001-11.794q.004-41.734.019-83.468.014-40.536.02-81.073v-2.525l.013-76.261v-2.376Q.974 220.477 1 142h1z"/><path fill="#c7c8c9" d="M717 832c-4.968 3.974-7.688 4.31-14 4l-3 1c-1.765.06-3.532.059-5.298.022l-3.275-.061-3.532-.082-3.62-.072q-5.731-.116-11.462-.245l-7.764-.158Q655.524 836.21 646 836l1-2 1.911-.025c6.637-.086 13.273-.186 19.91-.292q3.7-.057 7.403-.105c18.207-.18 18.207-.18 36.264-2.26C715 831 715 831 717 832"/><path fill="#2da0cd" d="m521 519 2 1c.578 2.218.578 2.218 1.035 5.145l.514 3.244.514 3.423.525 3.295c2.11 13.608 2.547 26.908 2.475 40.643q-.009 2.52-.014 5.04-.017 6.105-.049 12.21c-2.955-2.955-2.317-6.158-2.344-10.121l-.044-2.468c-.047-2.616-.08-5.232-.112-7.848-.067-14.264-.067-14.264-2.037-28.355-.65-3.098-.85-6.177-1.025-9.333A272 272 0 0 0 521 519"/><path fill="#3268e2" d="M526 594h1c.366 8.17-.992 15.816-2.562 23.813l-.397 2.058c-2.29 11.787-5.56 22.981-10.041 34.129-1.094-3.282-.958-3.869.074-7l.769-2.41.845-2.59c4.319-13.82 7.245-27.716 8.917-42.094C525 597 525 597 526 594"/><path fill="#e3e3e4" d="M1 659h1l.06 3.668c.076 4.507.165 9.013.257 13.52q.058 2.921.105 5.842c.046 2.806.104 5.61.164 8.415l.035 2.624c.114 4.71.675 8.48 2.379 12.931.195 2.773.195 2.773.125 5.375l-.055 2.648L5 716c-3-2-3-2-3.51-4.272-.631-10.846-.601-21.68-.552-32.54q.008-2.947.013-5.893Q.968 666.147 1 659"/><path fill="#813dca" d="m580 638 2 1-2.406 2.336-3.094 3.039-1.59 1.54c-1.342 1.323-2.63 2.701-3.91 4.085v2h-2c-.848 4.406-1.135 8.578-1.125 13.063l-.008 3.597c.116 2.914.46 5.51 1.133 8.34-2-1-2-1-3.125-3.312-2.193-9.24-1.394-16.55 3.191-24.907 3.023-4.348 6.728-7.603 10.934-10.781"/><path fill="#7441da" d="m604 614 1 2c-3.102 5.043-6.748 9.083-10.937 13.25l-1.842 1.89c-3.19 3.194-5.758 5.607-10.221 6.86 2.27-3.12 4.668-5.62 7.625-8.062 5.508-4.677 9.873-10.32 14.375-15.938"/><path fill="#2c8ae5" d="M526 594h1c.222 6.826-.554 12.902-2 19.563l-.578 2.767q-.699 3.337-1.422 6.67h-1c1.76-22.28 1.76-22.28 4-29"/><path fill="#e0c51d" d="M542 306c1 3 1 3-.223 5.523-3.466 5.373-6.535 9.77-11.777 13.477l-2-1 1.574-1.434c4.477-4.245 7.727-8.27 10.516-13.78C541 307 541 307 542 306"/><path fill="#e4cd2d" d="m311 597 2 1c.633 2.984.633 2.984 1.125 6.75l.508 3.734c.3 2.881.444 5.625.367 8.516h-2c-1.42-6.783-2.227-13.067-2-20"/><path fill="#ecc91f" d="M319 635h1l.805 2.887 1.07 3.8 1.055 3.762c.97 3.465.97 3.465 2.265 6.32C326 654 326 654 325 657a1316 1316 0 0 1-2.937-7.125l-.842-2.016c-1.6-3.932-2.812-7.592-3.221-11.859z"/><path fill="#c1c2c4" d="M717 832c-3.038 2.71-4.702 3.98-8.848 4.043A125 125 0 0 1 700 835v-1h7v-2c7.75-1.125 7.75-1.125 10 0"/><path fill="#7f3acc" d="M654 639c0 4.064-1.53 5.052-4.25 8l-2.39 2.625c-2.025 2.038-4.01 3.737-6.36 5.375 1.241-4.69 3.71-6.673 7.441-9.473 1.731-1.429 1.731-1.429 2.086-3.648L651 640z"/><path fill="#d1731f" d="M156 527c1.02 3.058 1.002 4.498.625 7.625l-.273 2.414C156 539 156 539 155 540a236 236 0 0 0-1 7h-1c-.246-6.523.47-12.645 2-19z"/><path fill="#dfdfe1" d="M835 714c1.16 3.478.708 5.459 0 9h-3v-8z"/><path fill="#2d94ed" d="M591 508c3.66 1.22 3.923 2.126 5.688 5.438l1.324 2.433C599 518 599 518 599 520h-2c-1.508-2.117-1.508-2.117-3.125-4.875l-1.633-2.742C591 510 591 510 591 508"/><path fill="#8b39ca" d="m636 657 3 1a835 835 0 0 1-4.312 3.938l-2.426 2.214C630 666 630 666 627 667v-2c1.46-1.184 1.46-1.184 3.375-2.437 2.71-1.78 3.753-2.755 5.625-5.563"/><path fill="#edd42f" d="m314 618 2 1c.668 2.215.668 2.215 1.188 4.938l.542 2.714C318 629 318 629 317 631c-1.671-2.962-2.327-5.37-2.625-8.75l-.227-2.422z"/><path fill="#dc6f31" d="m162 503 2 1c-1.875 5.75-1.875 5.75-3 8h-2z"/><path fill="#b6b5b8" d="m113 829 11 2c-3.85 2.567-5.586 1.833-10 1z"/><path fill="#743fd3" d="m664 624 1 2-6 9-1-2z"/><path fill="#e07f20" d="M327 474c1.574 3.149.719 5.645 0 9l-3 2c.551-3.95 1.39-7.35 3-11"/><path fill="#d67135" d="M333 449c1.099 3.297.871 4.405.063 7.688l-.59 2.449L332 461h-2q.464-2.438.938-4.875l.527-2.742C332 451 332 451 333 449"/><path fill="#903acc" d="m624 667 3 1-7 5-2-2c3-2 3-2 6-2z"/></svg>