<?xml version="1.0" encoding="UTF-8"?>
<svg version="1.1" xmlns="http://www.w3.org/2000/svg" viewBox="0 0 837 840" width="40" height="40">
<path d="M0 0 C2.34626695 -0.00302384 4.69253291 -0.00691449 7.03879714 -0.01159257 C12.78843075 -0.02077847 18.53801154 -0.02073315 24.28764984 -0.01668095 C31.18140764 -0.0123384 38.07514126 -0.0196276 44.96889455 -0.02717223 C59.25930513 -0.04238292 73.54969794 -0.04412031 87.84011492 -0.0416492 C98.87843562 -0.03981389 109.91675052 -0.04158114 120.9550705 -0.04587364 C122.54303683 -0.04647605 124.13100317 -0.04707725 125.71896951 -0.04767724 C128.11212407 -0.04858454 130.50527863 -0.04949321 132.89843318 -0.0504096 C155.13845691 -0.05883478 177.37847847 -0.06317784 199.61850357 -0.05900288 C200.87515757 -0.05876831 200.87515757 -0.05876831 202.15719852 -0.05852901 C206.40298016 -0.05772327 210.6487618 -0.0568775 214.89454344 -0.05601571 C216.15929598 -0.05575908 216.15929598 -0.05575908 217.44959908 -0.05549726 C219.15468885 -0.0551506 220.85977863 -0.05480207 222.5648684 -0.05445167 C249.09133411 -0.04909544 275.61776657 -0.0570239 302.14422607 -0.07548523 C331.97354201 -0.09622108 361.80283736 -0.10692491 391.6321609 -0.10290974 C394.81540982 -0.10251442 397.99865873 -0.10215287 401.18190765 -0.10181236 C402.35752966 -0.10167627 402.35752966 -0.10167627 403.55690161 -0.10153742 C415.36608081 -0.10037355 427.17523915 -0.10700369 438.98441315 -0.11762428 C452.42192106 -0.12969728 465.85938316 -0.1312111 479.29689178 -0.11883412 C486.14869982 -0.11280477 493.00042634 -0.11143464 499.85222816 -0.12383652 C506.13300403 -0.13471409 512.41361593 -0.13156949 518.69438419 -0.11757483 C520.95806634 -0.11493309 523.22176142 -0.11727786 525.48543087 -0.1253107 C542.29166032 -0.18077668 558.19582739 1.19000886 574.39862061 5.94819641 C575.27155762 6.20310852 576.14449463 6.45802063 577.04388428 6.72065735 C597.82436158 13.05181014 616.0012012 24.5467903 631.83612061 39.26069641 C632.33482666 39.72089172 632.83353271 40.18108704 633.34735107 40.65522766 C659.24124604 64.80082808 672.53065969 96.79676739 677.83612061 131.26069641 C678.16612061 131.26069641 678.49612061 131.26069641 678.83612061 131.26069641 C678.88750275 185.98780161 678.93526106 240.71490909 678.96315002 295.44203186 C678.9635642 296.25268928 678.96397837 297.0633467 678.96440509 297.8985695 C678.97338491 315.51856596 678.9816953 333.13856268 678.98931659 350.75855978 C678.99305843 359.40005981 678.99694812 368.04155977 679.00091553 376.68305969 C679.0013078 377.54296875 679.00170008 378.4028778 679.00210425 379.2888447 C679.01487629 407.13460295 679.03740124 434.98034287 679.06501227 462.82609003 C679.09334691 491.45376765 679.11178548 520.08143513 679.11786558 548.70912653 C679.11872997 552.75746225 679.11970688 556.80579793 679.12075233 560.85413361 C679.1209546 561.65086297 679.12115687 562.44759234 679.12136527 563.26846502 C679.12490317 576.06647244 679.13879773 588.86444842 679.15661671 601.66244305 C679.17433079 614.54518125 679.18101148 627.42788846 679.17662474 640.3106384 C679.17455127 647.28411724 679.1772065 654.25751231 679.19373703 661.2309742 C679.20841824 667.62589732 679.20901986 674.02066748 679.19881729 680.41559789 C679.19755774 682.71876795 679.20129314 685.02194787 679.21077015 687.32509878 C679.27935861 705.03581251 678.38907074 722.59856225 672.64862061 739.51069641 C672.34528809 740.42633362 672.04195557 741.34197083 671.72943115 742.28535461 C659.14347585 779.04663145 633.21273904 809.02759989 598.96112061 827.01069641 C596.59184041 828.1089612 594.21748393 829.18942024 591.83612061 830.26069641 C591.19545207 830.55887094 590.55478354 830.85704547 589.89470081 831.1642556 C575.63896756 837.6637984 562.59081432 838.24992324 547.10116577 838.12939453 C544.53664793 838.13532176 541.97213568 838.14431075 539.40763795 838.15607101 C533.86272645 838.1765894 528.31831536 838.17151692 522.77341843 838.14896774 C514.5279844 838.11552971 506.28291937 838.12262013 498.03744846 838.13742694 C483.30747106 838.16259502 468.57773351 838.14840435 453.8477784 838.11774994 C440.96077134 838.09112431 428.07384418 838.07887105 415.18680954 838.0805912 C414.33046721 838.08069052 413.47412488 838.08078984 412.59183279 838.08089218 C409.11532656 838.08132627 405.63882035 838.08184152 402.16231415 838.08246938 C369.58723042 838.08823953 337.01228855 838.05569365 304.43725037 838.00408349 C275.51337699 837.95844571 246.58961864 837.94018232 217.66571045 837.94697571 C215.80753341 837.94740297 213.94935637 837.94782978 212.09117933 837.94825616 C211.17251797 837.94846785 210.25385662 837.94867955 209.30735705 837.94889766 C204.68266566 837.94995284 200.05797426 837.95095779 195.43328285 837.95190716 C194.52084362 837.95209767 193.60840438 837.95228817 192.66831547 837.95248445 C168.47452505 837.95720652 144.28074759 837.94264742 120.08696687 837.92174274 C119.22617571 837.92100232 118.36538455 837.92026191 117.47850881 837.91949906 C116.619315 837.91875923 115.7601212 837.91801941 114.87489121 837.91725716 C113.58850194 837.91614988 113.58850194 837.91614988 112.27612501 837.91502024 C110.54907721 837.91352518 108.82202942 837.91201337 107.09498165 837.9104847 C95.06655195 837.89995438 83.03813801 837.89634585 71.00970408 837.89736722 C55.51162798 837.89861665 40.01365645 837.88652013 24.51561721 837.8512943 C16.32426169 837.83304374 8.13306954 837.82557919 -0.05830305 837.83392903 C-6.1783311 837.83890987 -12.29813725 837.82291937 -18.41811605 837.79880295 C-20.89083654 837.79225882 -23.36358584 837.79240928 -25.8363034 837.7999806 C-38.0283007 837.8335819 -48.72083285 837.83471762 -60.16387939 833.26069641 C-61.80389768 832.82169928 -63.44915736 832.40126118 -65.10137939 832.01069641 C-72.01008371 829.96743582 -78.02876489 825.93894113 -84.16387939 822.26069641 C-85.3421932 821.59030739 -86.5218889 820.92234157 -87.70294189 820.25679016 C-111.27585109 806.66112808 -131.2816991 785.32148388 -142.16387939 760.26069641 C-142.64083252 759.21011047 -143.11778564 758.15952454 -143.60919189 757.07710266 C-155.48382264 730.31442985 -157.32469361 704.38276484 -157.28413391 675.47558594 C-157.2845704 673.15860269 -157.28544675 670.8416195 -157.28672308 668.52463657 C-157.28895268 662.18052202 -157.28496778 655.83642445 -157.27994502 649.49231207 C-157.27556945 643.34661495 -157.27690629 637.20091763 -157.27762686 631.05521943 C-157.27893791 618.49070562 -157.27561019 605.92619708 -157.26960945 593.3616848 C-157.26368597 580.92697308 -157.2598422 568.49226355 -157.25875664 556.05755043 C-157.2586879 555.2834762 -157.25861916 554.50940196 -157.25854834 553.71187093 C-157.25820999 549.78050229 -157.25790861 545.84913365 -157.25762146 541.917765 C-157.25552283 514.09498088 -157.24879045 486.27219962 -157.23931885 458.44941711 C-157.23012979 431.42532873 -157.22304844 404.40124113 -157.21881104 377.37715149 C-157.21867951 376.54368407 -157.21854798 375.71021666 -157.21841247 374.85149266 C-157.21709391 366.48122716 -157.21581811 358.11096166 -157.21457361 349.74069616 C-157.21203762 332.69054422 -157.20921636 315.64039234 -157.20622253 298.59024048 C-157.20608524 297.80635694 -157.20594795 297.0224734 -157.2058065 296.21483582 C-157.19661079 243.89678814 -157.18074533 191.57874211 -157.16387939 139.26069641 C-156.83387939 139.26069641 -156.50387939 139.26069641 -156.16387939 139.26069641 C-156.16387939 135.30069641 -156.16387939 131.34069641 -156.16387939 127.26069641 C-155.83387939 127.26069641 -155.50387939 127.26069641 -155.16387939 127.26069641 C-154.94473877 126.02577454 -154.72559814 124.79085266 -154.49981689 123.51850891 C-148.92787623 93.27598864 -136.95498702 67.96964205 -116.16387939 45.26069641 C-115.41364502 44.43827454 -114.66341064 43.61585266 -113.89044189 42.76850891 C-93.53027262 21.5000793 -65.97286489 7.68696786 -37.16387939 2.26069641 C-35.84805811 2.00882803 -35.84805811 2.00882803 -34.50565457 1.75187141 C-23.02011936 -0.16352881 -11.61289923 -0.02126011 0 0 Z " fill="#21222B" transform="translate(158.16387939453125,2.7393035888671875)"/>
<path d="M0 0 C2.81409109 0.02379418 5.62723827 0.02049801 8.44140625 0.01391602 C23.96352483 0.03670392 38.8909545 1.52475227 54.11328125 4.64868164 C55.18481445 4.86814453 56.25634766 5.08760742 57.36035156 5.3137207 C86.63178986 11.47844965 113.71907486 24.37296234 137.55078125 42.33618164 C139.04544922 43.4615332 139.04544922 43.4615332 140.5703125 44.60961914 C151.77724987 53.43733847 162.10345954 63.83630504 170.55078125 75.33618164 C171.4015625 76.47893555 171.4015625 76.47893555 172.26953125 77.64477539 C186.12207023 96.81794865 197.31819007 118.81136291 204.55078125 141.33618164 C204.78958008 142.07594238 205.02837891 142.81570312 205.27441406 143.57788086 C212.46902456 166.31415645 216.86674002 189.77767688 219.25708008 213.47973633 C219.42374974 215.10071308 219.59635001 216.72117451 219.78788757 218.33940125 C220.42979253 223.81044039 220.83988422 229.25979225 221.09375 234.76196289 C221.15697701 236.108507 221.15697701 236.108507 221.22148132 237.48225403 C221.53270133 244.67654452 221.65671985 251.86640396 221.7265625 259.06665039 C221.73855682 260.16381378 221.75055115 261.26097717 221.76290894 262.39138794 C221.81097817 266.88902693 221.85873709 271.38640274 221.87670898 275.88427734 C221.95640032 292.71876493 223.61759259 308.76780326 226.55078125 325.33618164 C226.93082054 327.54549091 227.3076015 329.75536348 227.6809082 331.96582031 C227.93116508 333.43821419 227.93116508 333.43821419 228.18647766 334.94035339 C228.55078125 337.33618164 228.55078125 337.33618164 228.55078125 339.33618164 C229.21078125 339.33618164 229.87078125 339.33618164 230.55078125 339.33618164 C230.94265625 340.28493164 231.33453125 341.23368164 231.73828125 342.21118164 C233.45449315 346.26243185 235.49136275 350.12458652 237.5625 354.00415039 C238.55078125 356.33618164 238.55078125 356.33618164 238.55078125 360.33618164 C239.21078125 360.33618164 239.87078125 360.33618164 240.55078125 360.33618164 C241.22746123 361.58078947 241.89172844 362.8321506 242.55078125 364.08618164 C242.92203125 364.78227539 243.29328125 365.47836914 243.67578125 366.19555664 C244.55078125 368.33618164 244.55078125 368.33618164 244.55078125 372.33618164 C245.54078125 372.66618164 246.53078125 372.99618164 247.55078125 373.33618164 C248.5078125 375.38305664 248.5078125 375.38305664 249.36328125 378.08618164 C250.76646791 382.25853592 252.38090312 386.09583136 254.36328125 390.02368164 C259.05175376 400.00751015 261.78103978 410.69114191 264.55078125 421.33618164 C264.84758789 422.44920654 264.84758789 422.44920654 265.15039062 423.5847168 C271.90078903 449.93325464 268.4042444 479.90184278 259.33984375 505.0637207 C258.27724607 508.12394942 257.39796422 511.2100765 256.55078125 514.33618164 C255.89078125 514.33618164 255.23078125 514.33618164 254.55078125 514.33618164 C254.41542969 514.93043945 254.28007813 515.52469727 254.140625 516.13696289 C252.22457521 523.51432826 248.93729238 529.14836556 244.55078125 535.33618164 C243.85210938 536.33391602 243.1534375 537.33165039 242.43359375 538.35961914 C232.4946049 551.91278576 217.49339944 570.72857494 200.7109375 575.40649414 C199.66808594 575.71329102 198.62523437 576.02008789 197.55078125 576.33618164 C197.22078125 577.32618164 196.89078125 578.31618164 196.55078125 579.33618164 C195.56078125 579.33618164 194.57078125 579.33618164 193.55078125 579.33618164 C193.55078125 579.99618164 193.55078125 580.65618164 193.55078125 581.33618164 C191.46785695 581.98333298 189.38442586 582.6288533 187.30078125 583.27368164 C186.140625 583.63333008 184.98046875 583.99297852 183.78515625 584.36352539 C175.38393682 586.88997906 166.90154582 587.67648747 158.55078125 584.33618164 C153.32759764 581.29944698 151.15058996 576.99899659 149.55078125 571.33618164 C148.06835735 562.1502216 150.31723975 554.93779254 155.55078125 547.33618164 C158.30331959 544.3115901 161.31571428 541.82860745 164.55078125 539.33618164 C171.39664503 533.95156948 177.51886406 528.48305682 183.26171875 521.91430664 C185.55078125 519.33618164 185.55078125 519.33618164 188.1484375 516.80102539 C200.70867942 503.91401294 202.71816826 486.12714767 202.81640625 468.98461914 C202.50383864 465.86813623 201.6016907 463.28466965 200.55078125 460.33618164 C199.56396146 456.82038644 198.60303584 453.29835245 197.6484375 449.77368164 C196.13448622 445.03248191 193.91086871 440.84192161 191.36328125 436.58618164 C189.55078125 433.33618164 189.55078125 433.33618164 189.55078125 431.33618164 C188.89078125 431.33618164 188.23078125 431.33618164 187.55078125 431.33618164 C184.36050965 427.33094969 182.34902854 423.39174779 181.55078125 418.33618164 C180.56655979 416.32836987 179.56844052 414.32725412 178.55078125 412.33618164 C178.55078125 411.67618164 178.55078125 411.01618164 178.55078125 410.33618164 C177.76703125 410.06805664 176.98328125 409.79993164 176.17578125 409.52368164 C173.55078125 408.33618164 173.55078125 408.33618164 171.55078125 405.33618164 C171.42578125 402.64868164 171.42578125 402.64868164 171.55078125 400.33618164 C170.56078125 400.33618164 169.57078125 400.33618164 168.55078125 400.33618164 C166.90381188 397.96418771 165.46350697 395.65475449 164.05078125 393.14868164 C163.66019531 392.47514648 163.26960938 391.80161133 162.8671875 391.10766602 C162.10395593 389.79064184 161.34598331 388.47055355 160.59375 387.1472168 C159.68525931 385.56969246 158.7311288 384.01862628 157.76953125 382.47290039 C156.55078125 380.33618164 156.55078125 380.33618164 156.55078125 378.33618164 C155.89078125 378.33618164 155.23078125 378.33618164 154.55078125 378.33618164 C154.32003906 377.73032227 154.08929687 377.12446289 153.8515625 376.50024414 C152.12720908 372.07008714 150.31974294 367.82834791 148.05078125 363.64868164 C145.9484285 359.57735804 144.79924535 355.66536132 143.73828125 351.21118164 C140.94503459 340.1503736 136.59220833 328.66855059 127.41015625 321.40258789 C121.80792496 318.18954347 114.78092269 318.78903807 108.55078125 319.33618164 C105.31332423 320.32048053 102.49183754 321.68146003 99.55078125 323.33618164 C98.83148437 323.67262695 98.1121875 324.00907227 97.37109375 324.35571289 C94.98269678 325.64216705 94.60868424 326.86774134 93.55078125 329.33618164 C93.04804688 330.06579102 92.5453125 330.79540039 92.02734375 331.54711914 C85.90434932 343.11277529 92.63782382 360.04012816 95.83056641 371.62841797 C96.6840737 374.83731607 97.40048655 378.06414806 98.09912109 381.30957031 C98.77148729 384.3264956 99.6002219 387.29552746 100.42578125 390.27368164 C101.99612822 396.08141324 103.45039337 401.91085903 104.80078125 407.77368164 C104.97593262 408.50643311 105.15108398 409.23918457 105.33154297 409.99414062 C106.43732879 414.89890765 106.61311623 419.31302142 106.55078125 424.33618164 C106.85869817 426.00773064 107.19465028 427.67423711 107.55078125 429.33618164 C108.04367927 433.55993852 108.40805851 437.79745209 108.80078125 442.03149414 C108.88328125 442.89516602 108.96578125 443.75883789 109.05078125 444.64868164 C109.12296875 445.42856445 109.19515625 446.20844727 109.26953125 447.01196289 C109.50945702 449.33248481 109.50945702 449.33248481 110.05786133 451.55566406 C110.76277467 455.53201772 110.82794969 459.48043962 110.9375 463.51196289 C110.97578667 464.83794746 110.97578667 464.83794746 111.0148468 466.1907196 C111.06673131 468.05742004 111.11617257 469.92418979 111.16333008 471.79101562 C111.23775919 474.62877722 111.32855624 477.46571845 111.41992188 480.30297852 C111.46845949 482.12261327 111.51601723 483.94227448 111.5625 485.76196289 C111.5915593 486.60181229 111.62061859 487.44166168 111.65055847 488.30696106 C111.76440732 493.70982474 111.0158908 498.13550735 109.55078125 503.33618164 C109.30051706 504.86447366 109.08004444 506.39844344 108.91015625 507.93774414 C107.42331089 520.2382332 104.89156582 531.89574951 101.32275391 543.75952148 C100.60662346 546.14979369 99.92659615 548.54778096 99.25 550.94946289 C93.07214206 571.93099842 80.86856536 592.74824261 65.55078125 608.33618164 C64.89207031 609.0077832 64.23335938 609.67938477 63.5546875 610.37133789 C57.20395466 616.38983923 49.3789859 620.00304184 40.55078125 620.33618164 C38.10661518 619.85023524 35.9156667 619.1566521 33.55078125 618.33618164 C33.55078125 617.67618164 33.55078125 617.01618164 33.55078125 616.33618164 C32.80828125 616.06805664 32.06578125 615.79993164 31.30078125 615.52368164 C27.25677642 613.77740683 25.11831474 612.44137844 23.06640625 608.44555664 C19.88166614 599.99223412 18.09052385 593.98682513 21.55078125 585.33618164 C21.79570312 584.70325195 22.040625 584.07032227 22.29296875 583.41821289 C24.23066375 578.71115734 26.63710197 574.50873699 29.36328125 570.21118164 C39.84624484 553.48138685 45.74973461 536.75595039 45.73828125 516.89868164 C45.73892578 515.75028809 45.73957031 514.60189453 45.74023438 513.41870117 C45.68562795 504.58114811 45.02503807 496.05009248 43.55078125 487.33618164 C42.89078125 487.33618164 42.23078125 487.33618164 41.55078125 487.33618164 C41.43863281 486.49700195 41.43863281 486.49700195 41.32421875 485.64086914 C38.09414965 465.94378109 25.7059903 446.54390255 16.80078125 428.89868164 C13.51486978 422.37507841 10.31590906 415.83066041 7.36328125 409.14868164 C7.07163086 408.49520752 6.77998047 407.8417334 6.47949219 407.16845703 C5.26811741 404.36819 4.55078125 402.42440425 4.55078125 399.33618164 C3.89078125 399.33618164 3.23078125 399.33618164 2.55078125 399.33618164 C2.46699219 399.97297852 2.38320313 400.60977539 2.296875 401.26586914 C1.24966009 405.57535039 -0.55096541 409.43420566 -2.38671875 413.46118164 C-2.78713379 414.34572021 -3.18754883 415.23025879 -3.60009766 416.14160156 C-6.32457068 422.08124854 -9.24045342 427.88851029 -12.32421875 433.64868164 C-29.33062416 465.42002753 -46.72231859 500.83939 -35.76171875 537.64868164 C-34.72877327 540.90592314 -33.61430054 544.12415652 -32.44921875 547.33618164 C-31.89234375 548.97006836 -31.89234375 548.97006836 -31.32421875 550.63696289 C-28.56423085 557.97325425 -24.51546867 564.63279732 -20.45825195 571.31323242 C-14.25854366 581.64062689 -10.38488068 590.87577139 -13.0390625 603.03930664 C-15.64571971 610.8712905 -21.08142584 616.05733316 -28.32421875 619.83618164 C-39.35230024 621.60067468 -46.9329374 619.76290836 -55.94921875 613.27368164 C-82.55325914 591.47314854 -95.97496508 550.58380974 -102.44921875 518.33618164 C-102.63484375 517.42964844 -102.82046875 516.52311523 -103.01171875 515.58911133 C-108.17091177 489.0818604 -107.26322507 458.80054796 -102.44921875 432.33618164 C-102.23458984 431.15233887 -102.01996094 429.96849609 -101.79882812 428.7487793 C-98.91016221 413.1416277 -95.53574363 397.6738721 -91.44921875 382.33618164 C-91.09617979 380.9950817 -90.74330916 379.65393743 -90.390625 378.31274414 C-90.05933594 377.06235352 -89.72804688 375.81196289 -89.38671875 374.52368164 C-89.07089844 373.33000977 -88.75507813 372.13633789 -88.4296875 370.90649414 C-87.76166868 368.47394753 -87.05418311 366.05197643 -86.3125 363.64086914 C-83.15149095 353.01544221 -80.81566779 341.29760869 -85.38671875 330.71118164 C-88.80138458 324.90918498 -94.14538145 321.43746074 -100.44921875 319.33618164 C-108.17307405 318.84414345 -116.36022586 318.49305377 -122.94921875 323.07446289 C-129.83617309 329.3050044 -132.96923419 338.16177761 -135.44921875 346.88305664 C-141.98186806 369.44111129 -154.24887935 389.1436247 -166.96972656 408.67016602 C-183.04149156 433.41344923 -199.29100792 459.62406929 -193.8359375 490.38696289 C-190.14502736 505.78472459 -182.16493607 517.94806373 -171.44921875 529.33618164 C-170.95873047 529.85841309 -170.46824219 530.38064453 -169.96289062 530.91870117 C-164.77191057 536.3854732 -159.48095347 541.40052938 -153.51171875 546.02368164 C-147.78154045 550.64425894 -144.1774864 554.81969821 -142.984375 562.21899414 C-142.60403498 569.47328435 -144.02939074 575.4909591 -148.44921875 581.33618164 C-155.26081805 587.06826408 -163.94933087 587.04405249 -172.42236328 586.56274414 C-181.89205724 585.50421897 -190.69828416 580.6203406 -198.44921875 575.33618164 C-199.75439453 574.45833008 -199.75439453 574.45833008 -201.0859375 573.56274414 C-208.44547222 568.41841887 -215.00006848 562.5642122 -221.44921875 556.33618164 C-222.01334473 555.79614502 -222.5774707 555.2561084 -223.15869141 554.69970703 C-250.07713781 528.44850779 -262.41048066 492.84546508 -262.88671875 455.89868164 C-262.89550816 427.60382325 -254.39260013 401.69256158 -242.44921875 376.33618164 C-241.7069359 374.74247605 -240.96475025 373.14872518 -240.22265625 371.55493164 C-236.98785497 364.64529584 -233.69355221 357.77413297 -230.22558594 350.97827148 C-224.83791967 340.39004629 -220.60929859 330.07897719 -218.19921875 318.39868164 C-218.03583008 317.61267578 -217.87244141 316.82666992 -217.70410156 316.0168457 C-215.25648148 303.21511424 -215.29088618 290.14795678 -215.06188965 277.16217041 C-214.31709025 237.06532409 -211.92221542 197.22762266 -201.44921875 158.33618164 C-201.18915039 157.36471191 -200.92908203 156.39324219 -200.66113281 155.39233398 C-193.59071084 129.52082055 -183.11684582 104.22255856 -167.44921875 82.33618164 C-166.72863281 81.32942383 -166.00804687 80.32266602 -165.265625 79.28540039 C-160.36398241 72.59979776 -155.15216116 66.35019364 -149.44921875 60.33618164 C-148.61777344 59.45188477 -147.78632813 58.56758789 -146.9296875 57.65649414 C-121.90653948 31.79069252 -88.45210071 14.75049858 -53.69921875 6.33618164 C-52.72339844 6.08868164 -51.74757813 5.84118164 -50.7421875 5.58618164 C-33.93641909 1.50690536 -17.26452838 -0.15544112 0 0 Z " fill="#CB7F5D" transform="translate(415.44921875,98.663818359375)"/>
<path d="M0 0 C2.68753144 2.68753144 2.24407591 4.74641573 2.26699135 8.3991839 C2.26248412 9.30939305 2.2579769 10.21960221 2.25333309 11.15739346 C2.25643036 12.12313531 2.25952764 13.08887716 2.26271877 14.08388391 C2.27075278 17.35728684 2.26441059 20.63051047 2.25828552 23.90391541 C2.26113713 26.25973696 2.26487347 28.61555759 2.26942402 30.97137648 C2.27735406 36.11299206 2.27906375 41.25457185 2.27541161 46.39619064 C2.27003325 54.04266703 2.27610297 61.68910377 2.28470039 69.3355757 C2.29889993 82.20144503 2.30421585 95.06730338 2.30496025 107.93317986 C2.30613787 125.51733899 2.32133033 143.10146676 2.34045542 160.68561453 C2.34935639 168.87622496 2.35762552 177.06683604 2.36577702 185.25744724 C2.36659477 186.07754126 2.36741252 186.89763528 2.36825505 187.74258064 C2.38760744 207.27719601 2.40113754 226.81181455 2.41333008 246.34643555 C2.41386687 247.20142506 2.41440366 248.05641457 2.41495672 248.93731285 C2.42744081 268.86732644 2.43822096 288.79734041 2.44702148 308.72735596 C2.45009113 315.63065593 2.45318356 322.5339559 2.45629883 329.43725586 C2.45668064 330.2892027 2.45706246 331.14114954 2.45745584 332.01891294 C2.46622543 351.48496998 2.47740133 370.95102037 2.49742985 390.41706944 C2.49827251 391.23630996 2.49911518 392.05555049 2.49998338 392.89961648 C2.50846888 401.08118529 2.5174644 409.26275339 2.52717515 417.44432083 C2.5319364 421.47045957 2.53655195 425.49659847 2.54106331 429.5227375 C2.54195119 430.31509184 2.54283907 431.10744618 2.54375386 431.92381125 C2.55766012 444.65308881 2.5603281 457.38234503 2.55838365 470.11162905 C2.55658391 482.92242513 2.56528902 495.73317853 2.58469205 508.54396039 C2.59487814 515.47883996 2.60029314 522.4136417 2.59192467 529.348526 C2.58470966 535.70693942 2.59140958 542.06518603 2.60881007 548.42357833 C2.61267039 550.7145519 2.61155803 553.00554088 2.60475319 555.29650759 C2.49284349 596.24602386 15.25919354 632.16149017 44.25 661.6875 C69.33626211 686.54118691 104.27937919 702.21989134 139.79473877 702.12584114 C140.75648386 702.12729458 141.71822895 702.12874802 142.70911783 702.13024551 C145.93272213 702.13389572 149.15627886 702.13042357 152.37988281 702.12698364 C154.71414623 702.12813585 157.04840946 702.12972406 159.38267231 702.13171089 C165.12583076 702.13545249 170.86897534 702.13453923 176.61213398 702.13166012 C183.49321782 702.12846992 190.37429637 702.13108607 197.25537995 702.13387203 C210.73947558 702.1391381 224.22356648 702.1386811 237.70766256 702.13579312 C249.51284204 702.13327719 261.31801977 702.13262103 273.12319946 702.13381577 C273.90638617 702.13389215 274.68957289 702.13396854 275.49649253 702.13404724 C278.6758213 702.13435858 281.85515008 702.13467698 285.03447885 702.135007 C314.86577319 702.13806659 344.69706451 702.13529203 374.52835838 702.1299101 C401.01353611 702.12516816 427.49870903 702.12558594 453.98388672 702.13037109 C483.74867896 702.13573082 513.51346853 702.13784589 543.27826118 702.13475883 C546.45426559 702.13443812 549.63027 702.13412528 552.80627441 702.13381577 C553.58826997 702.13373669 554.37026552 702.13365761 555.1759579 702.13357614 C566.96622365 702.1324404 578.75648746 702.13376578 590.54675293 702.13629532 C603.96395573 702.13915957 617.38115305 702.13842929 630.79835516 702.13301457 C637.64174637 702.13034363 644.4851287 702.12921925 651.32851982 702.13266373 C657.59951112 702.13565449 663.87048369 702.13398769 670.14147329 702.12868617 C672.40395321 702.12757379 674.66643472 702.12812687 676.92891359 702.13056196 C701.65284788 702.32764878 701.65284788 702.32764878 725.875 697.9375 C727.54743774 697.47005371 727.54743774 697.47005371 729.25366211 696.99316406 C749.88678452 691.02116089 767.6589925 680.93155838 784 667 C784.63035156 666.49082031 785.26070312 665.98164062 785.91015625 665.45703125 C804.94267235 649.85455102 819.41921019 624.56225317 826 601 C826.32742188 599.85660156 826.65484375 598.71320312 826.9921875 597.53515625 C831.87599116 579.78023244 832.29591471 562.04616585 832.27174377 543.72991943 C832.27603876 541.42114507 832.28120476 539.11237219 832.28715843 536.8036015 C832.3009304 530.50516504 832.30251687 524.2067771 832.30201519 517.90832782 C832.30349104 511.79943801 832.31433465 505.69057102 832.32494953 499.58169148 C832.34634441 487.09650444 832.35875608 474.61132407 832.36609077 462.12612152 C832.37340796 449.77089287 832.3852801 437.41568122 832.40299797 425.06046295 C832.40465358 423.90533231 832.40465358 423.90533231 832.40634265 422.7268657 C832.41197916 418.8153865 832.4177069 414.90390745 832.42347669 410.99242845 C832.46419062 383.32682766 832.49652889 355.66122313 832.52319336 327.99560547 C832.52480661 326.32487866 832.52642005 324.65415186 832.52803367 322.98342505 C832.52923239 321.74170807 832.52923239 321.74170807 832.53045533 320.47490591 C832.53449919 316.2865136 832.53854756 312.0981213 832.54260254 307.909729 C832.54340574 307.07913753 832.54420893 306.24854605 832.54503647 305.39278514 C832.5637597 286.07516831 832.58501901 266.75755457 832.60717773 247.43994141 C832.60812567 246.61181811 832.60907361 245.78369482 832.61005028 244.93047689 C832.63171091 226.0269435 832.65454764 207.12341203 832.67970943 188.21988297 C832.68076529 187.42573829 832.68182114 186.63159362 832.68290898 185.81338396 C832.69241619 178.67043554 832.70197096 171.52748718 832.71177601 164.38453916 C832.73622591 146.57051169 832.7577463 128.75648881 832.77204772 110.94245007 C832.78201497 98.53936098 832.79515272 86.13627912 832.81169481 73.733197 C832.82053966 67.01249311 832.82757016 60.29179826 832.83033562 53.57108879 C832.83287988 47.42437769 832.83992722 41.27768915 832.85060786 35.13098696 C832.85365739 32.90263252 832.8550059 30.674275 832.85451955 28.44591853 C832.85409203 25.42621308 832.85973079 22.40657828 832.86692142 19.38688278 C832.86532706 18.51416971 832.8637327 17.64145663 832.86209002 16.74229771 C832.87920566 12.38116589 833.12506425 8.29443678 834 4 C834.33 4 834.66 4 835 4 C835.05138214 58.7271052 835.09914046 113.45421268 835.12702942 168.18133545 C835.12744359 168.99199287 835.12785776 169.80265029 835.12828448 170.63787309 C835.13726431 188.25786955 835.14557469 205.87786627 835.15319599 223.49786337 C835.15693783 232.1393634 835.16082751 240.78086335 835.16479492 249.42236328 C835.1651872 250.28227233 835.16557948 251.14218139 835.16598364 252.02814829 C835.17875568 279.87390654 835.20128064 307.71964646 835.22889166 335.56539362 C835.2572263 364.19307123 835.27566487 392.82073872 835.28174497 421.44843012 C835.28260937 425.49676584 835.28358628 429.54510152 835.28463173 433.59343719 C835.284834 434.39016656 835.28503627 435.18689593 835.28524467 436.00776861 C835.28878257 448.80577603 835.30267712 461.60375201 835.3204961 474.40174663 C835.33821018 487.28448484 835.34489088 500.16719204 835.34050413 513.04994199 C835.33843066 520.02342083 835.34108589 526.9968159 835.35761642 533.97027779 C835.37229763 540.36520091 835.37289925 546.75997106 835.36269668 553.15490147 C835.36143713 555.45807154 835.36517253 557.76125146 835.37464955 560.06440237 C835.44323801 577.7751161 834.55295014 595.33786584 828.8125 612.25 C828.50916748 613.16563721 828.20583496 614.08127441 827.89331055 615.0246582 C815.30735525 651.78593504 789.37661844 681.76690348 755.125 699.75 C752.7557198 700.84826479 750.38136333 701.92872383 748 703 C747.35933147 703.29817453 746.71866294 703.59634906 746.0585802 703.90355919 C731.80284696 710.40310199 718.75469372 710.98922683 703.26504517 710.86869812 C700.70052733 710.87462535 698.13601507 710.88361434 695.57151735 710.8953746 C690.02660585 710.91589299 684.48219476 710.9108205 678.93729782 710.88827133 C670.69186379 710.8548333 662.44679877 710.86192372 654.20132785 710.87673053 C639.47135046 710.90189861 624.7416129 710.88770794 610.0116578 710.85705353 C597.12465074 710.8304279 584.23772358 710.81817464 571.35068893 710.81989479 C570.49434661 710.81999411 569.63800428 710.82009343 568.75571218 710.82019576 C565.27920595 710.82062986 561.80269975 710.82114511 558.32619355 710.82177297 C525.75110981 710.82754311 493.17616794 710.79499724 460.60112977 710.74338707 C431.67725639 710.6977493 402.75349804 710.67948591 373.82958984 710.6862793 C371.9714128 710.68670655 370.11323576 710.68713337 368.25505872 710.68755975 C367.33639737 710.68777144 366.41773602 710.68798314 365.47123644 710.68820125 C360.84654505 710.68925643 356.22185366 710.69026138 351.59716225 710.69121075 C350.68472301 710.69140125 349.77228377 710.69159176 348.83219486 710.69178804 C324.63840445 710.69651011 300.44462698 710.68195101 276.25084627 710.66104633 C275.39005511 710.66030591 274.52926395 710.6595655 273.64238821 710.65880265 C272.7831944 710.65806282 271.92400059 710.657323 271.03877061 710.65656075 C269.75238134 710.65545347 269.75238134 710.65545347 268.44000441 710.65432382 C266.7129566 710.65282877 264.98590882 710.65131696 263.25886104 710.64978829 C251.23043134 710.63925797 239.20201741 710.63564944 227.17358347 710.63667081 C211.67550737 710.63792024 196.17753584 710.62582372 180.6794966 710.59059789 C172.48814108 710.57234733 164.29694893 710.56488278 156.10557634 710.57323261 C149.98554829 710.57821346 143.86574214 710.56222295 137.74576335 710.53810654 C135.27304286 710.53156241 132.80029355 710.53171287 130.327576 710.53928419 C118.1355787 710.57288549 107.44304655 710.57402121 96 706 C94.35998171 705.56100287 92.71472203 705.14056476 91.0625 704.75 C84.15379568 702.70673941 78.13511451 698.67824471 72 695 C70.8216862 694.32961098 69.64199049 693.66164516 68.4609375 692.99609375 C44.8880283 679.40043167 24.8821803 658.06078747 14 633 C13.52304688 631.94941406 13.04609375 630.89882813 12.5546875 629.81640625 C0.68005675 603.05373344 -1.16081422 577.12206843 -1.12025452 548.21488953 C-1.12069101 545.89790628 -1.12156736 543.58092309 -1.12284368 541.26394016 C-1.12507329 534.91982561 -1.12108839 528.57572804 -1.11606562 522.23161566 C-1.11169006 516.08591854 -1.1130269 509.94022122 -1.11374746 503.79452302 C-1.11505852 491.2300092 -1.1117308 478.66550067 -1.10573006 466.10098839 C-1.09980657 453.66627667 -1.09596281 441.23156714 -1.09487724 428.79685402 C-1.0948085 428.02277978 -1.09473976 427.24870555 -1.09466894 426.45117452 C-1.09433059 422.51980588 -1.09402921 418.58843723 -1.09374207 414.65706859 C-1.09164343 386.83428447 -1.08491105 359.01150321 -1.07543945 331.1887207 C-1.06625039 304.16463232 -1.05916905 277.14054472 -1.05493164 250.11645508 C-1.05480011 249.28298766 -1.05466859 248.44952025 -1.05453308 247.59079625 C-1.05321452 239.22053075 -1.05193871 230.85026525 -1.05069422 222.47999975 C-1.04815822 205.42984781 -1.04533697 188.37969593 -1.04234314 171.32954407 C-1.04220585 170.54566053 -1.04206856 169.76177699 -1.04192711 168.9541394 C-1.0327314 116.63609173 -1.01686593 64.3180457 -1 12 C-0.67 12 -0.34 12 0 12 C0 8.04 0 4.08 0 0 Z " fill="#CACACA" transform="translate(2,130)"/>
<path d="M0 0 C1.21913086 -0.0309375 1.21913086 -0.0309375 2.46289062 -0.0625 C14.11138832 -0.13663523 22.97277306 4.69112517 31.5 12.375 C40.27209118 21.49470319 42.29420908 32.56211364 42.08203125 44.65625 C41.60538414 56.18970117 35.92790141 64.59000083 27.609375 72.2890625 C20.80432116 77.88062772 13.69764956 81.61534646 4.8125 82.25 C4.16023438 82.31316406 3.50796875 82.37632812 2.8359375 82.44140625 C-8.28456241 83.06819806 -18.88298638 78.52737376 -27.2734375 71.50390625 C-35.16539311 64.2133822 -39.7300892 54.89946565 -40.37109375 44.1796875 C-40.64480472 30.30093104 -37.56463175 20.71212026 -27.9375 10.4375 C-19.64452449 2.50935928 -11.12110443 0.06891467 0 0 Z " fill="#2F3040" transform="translate(334.1875,250.75)"/>
<path d="M0 0 C8.23979215 6.91553984 14.11113986 14.95963925 16.1875 25.6875 C17.17203032 37.50186387 15.82307585 49.48538976 7.9453125 58.84765625 C0.09539131 67.06390709 -8.22564702 73.59086352 -20.0078125 73.92578125 C-34.60404882 74.25471887 -44.06552178 71.88066582 -54.91015625 61.72265625 C-63.79623221 52.53760951 -66.52944292 43.07489772 -66.33642578 30.56176758 C-65.79892578 18.2203218 -60.32467994 9.72812225 -51.4375 1.4375 C-37.16948721 -10.78879379 -15.07461654 -11.08134064 0 0 Z " fill="#2C2D3C" transform="translate(527.8125,258.3125)"/>
<path d="M0 0 C2.68753144 2.68753144 2.24407591 4.74641573 2.26699135 8.3991839 C2.26248412 9.30939305 2.2579769 10.21960221 2.25333309 11.15739346 C2.25643036 12.12313531 2.25952764 13.08887716 2.26271877 14.08388391 C2.27075278 17.35728684 2.26441059 20.63051047 2.25828552 23.90391541 C2.26113713 26.25973696 2.26487347 28.61555759 2.26942402 30.97137648 C2.27735406 36.11299206 2.27906375 41.25457185 2.27541161 46.39619064 C2.27003325 54.04266703 2.27610297 61.68910377 2.28470039 69.3355757 C2.29889993 82.20144503 2.30421585 95.06730338 2.30496025 107.93317986 C2.30613787 125.51733899 2.32133033 143.10146676 2.34045542 160.68561453 C2.34935639 168.87622496 2.35762552 177.06683604 2.36577702 185.25744724 C2.36659477 186.07754126 2.36741252 186.89763528 2.36825505 187.74258064 C2.38760744 207.27719601 2.40113754 226.81181455 2.41333008 246.34643555 C2.41386687 247.20142506 2.41440366 248.05641457 2.41495672 248.93731285 C2.42744081 268.86732644 2.43822096 288.79734041 2.44702148 308.72735596 C2.45009113 315.63065593 2.45318356 322.5339559 2.45629883 329.43725586 C2.45668064 330.2892027 2.45706246 331.14114954 2.45745584 332.01891294 C2.46622543 351.48496998 2.47740133 370.95102037 2.49742985 390.41706944 C2.49827251 391.23630996 2.49911518 392.05555049 2.49998338 392.89961648 C2.50846888 401.08118529 2.5174644 409.26275339 2.52717515 417.44432083 C2.5319364 421.47045957 2.53655195 425.49659847 2.54106331 429.5227375 C2.54195119 430.31509184 2.54283907 431.10744618 2.54375386 431.92381125 C2.55766012 444.65308881 2.5603281 457.38234503 2.55838365 470.11162905 C2.55658391 482.92242513 2.56528902 495.73317853 2.58469205 508.54396039 C2.59487814 515.47883996 2.60029314 522.4136417 2.59192467 529.348526 C2.58470966 535.70693942 2.59140958 542.06518603 2.60881007 548.42357833 C2.61267039 550.7145519 2.61155803 553.00554088 2.60475319 555.29650759 C2.49284349 596.24602386 15.25919354 632.16149017 44.25 661.6875 C66.09912207 683.33405845 92.24906492 694.47653915 122 701 C122 701.99 122 702.98 122 704 C123.32 704 124.64 704 126 704 C126.99 706.97 126.99 706.97 128 710 C116.46644401 710.43844563 106.94558309 710.08574796 96 706 C94.35627938 705.57507532 92.71050299 705.15800074 91.0625 704.75 C84.15379568 702.70673941 78.13511451 698.67824471 72 695 C70.8216862 694.32961098 69.64199049 693.66164516 68.4609375 692.99609375 C44.8880283 679.40043167 24.8821803 658.06078747 14 633 C13.52304688 631.94941406 13.04609375 630.89882813 12.5546875 629.81640625 C0.68005675 603.05373344 -1.16081422 577.12206843 -1.12025452 548.21488953 C-1.12069101 545.89790628 -1.12156736 543.58092309 -1.12284368 541.26394016 C-1.12507329 534.91982561 -1.12108839 528.57572804 -1.11606562 522.23161566 C-1.11169006 516.08591854 -1.1130269 509.94022122 -1.11374746 503.79452302 C-1.11505852 491.2300092 -1.1117308 478.66550067 -1.10573006 466.10098839 C-1.09980657 453.66627667 -1.09596281 441.23156714 -1.09487724 428.79685402 C-1.0948085 428.02277978 -1.09473976 427.24870555 -1.09466894 426.45117452 C-1.09433059 422.51980588 -1.09402921 418.58843723 -1.09374207 414.65706859 C-1.09164343 386.83428447 -1.08491105 359.01150321 -1.07543945 331.1887207 C-1.06625039 304.16463232 -1.05916905 277.14054472 -1.05493164 250.11645508 C-1.05480011 249.28298766 -1.05466859 248.44952025 -1.05453308 247.59079625 C-1.05321452 239.22053075 -1.05193871 230.85026525 -1.05069422 222.47999975 C-1.04815822 205.42984781 -1.04533697 188.37969593 -1.04234314 171.32954407 C-1.04220585 170.54566053 -1.04206856 169.76177699 -1.04192711 168.9541394 C-1.0327314 116.63609173 -1.01686593 64.3180457 -1 12 C-0.67 12 -0.34 12 0 12 C0 8.04 0 4.08 0 0 Z " fill="#DBDADB" transform="translate(2,130)"/>
<path d="M0 0 C0.33 0 0.66 0 1 0 C1.05138214 54.7271052 1.09914046 109.45421268 1.12702942 164.18133545 C1.12744359 164.99199287 1.12785776 165.80265029 1.12828448 166.63787309 C1.13726431 184.25786955 1.14557469 201.87786627 1.15319599 219.49786337 C1.15693783 228.1393634 1.16082751 236.78086335 1.16479492 245.42236328 C1.1651872 246.28227233 1.16557948 247.14218139 1.16598364 248.02814829 C1.17875568 275.87390654 1.20128064 303.71964646 1.22889166 331.56539362 C1.2572263 360.19307123 1.27566487 388.82073872 1.28174497 417.44843012 C1.28260937 421.49676584 1.28358628 425.54510152 1.28463173 429.59343719 C1.28493513 430.78853125 1.28493513 430.78853125 1.28524467 432.00776861 C1.28878257 444.80577603 1.30267712 457.60375201 1.3204961 470.40174663 C1.33821018 483.28448484 1.34489088 496.16719204 1.34050413 509.04994199 C1.33843066 516.02342083 1.34108589 522.9968159 1.35761642 529.97027779 C1.37229763 536.36520091 1.37289925 542.75997106 1.36269668 549.15490147 C1.36143713 551.45807154 1.36517253 553.76125146 1.37464955 556.06440237 C1.44323801 573.7751161 0.55295014 591.33786584 -5.1875 608.25 C-5.49083252 609.16563721 -5.79416504 610.08127441 -6.10668945 611.0246582 C-18.69264475 647.78593504 -44.62338156 677.76690348 -78.875 695.75 C-80.61262983 696.56550127 -82.35089504 697.38031435 -84.10546875 698.15869141 C-85.43236327 698.74792833 -86.7522098 699.35317601 -88.06640625 699.97021484 C-101.72485429 706.28938501 -114.09212056 706.87085443 -129 706 C-122.4079773 697.65087021 -115.14301838 695.16915033 -105 692.6875 C-84.20401931 687.53148865 -66.23827016 676.84396946 -50 663 C-49.36964844 662.49082031 -48.73929688 661.98164062 -48.08984375 661.45703125 C-29.05732765 645.85455102 -14.58078981 620.56225317 -8 597 C-7.67257812 595.85660156 -7.34515625 594.71320312 -7.0078125 593.53515625 C-2.12400884 575.78023244 -1.70408529 558.04616585 -1.72825623 539.72991943 C-1.72396124 537.42114507 -1.71879524 535.11237219 -1.71284157 532.8036015 C-1.6990696 526.50516504 -1.69748313 520.2067771 -1.69798481 513.90832782 C-1.69650896 507.79943801 -1.68566535 501.69057102 -1.67505047 495.58169148 C-1.65365559 483.09650444 -1.64124392 470.61132407 -1.63390923 458.12612152 C-1.62659204 445.77089287 -1.6147199 433.41568122 -1.59700203 421.06046295 C-1.59589829 420.29037586 -1.59479454 419.52028876 -1.59365735 418.7268657 C-1.58802084 414.8153865 -1.5822931 410.90390745 -1.57652331 406.99242845 C-1.53580938 379.32682766 -1.50347111 351.66122313 -1.47680664 323.99560547 C-1.47519339 322.32487866 -1.47357995 320.65415186 -1.47196633 318.98342505 C-1.47116719 318.15561373 -1.47036804 317.32780241 -1.46954467 316.47490591 C-1.46550081 312.2865136 -1.46145244 308.0981213 -1.45739746 303.909729 C-1.45659426 303.07913753 -1.45579107 302.24854605 -1.45496353 301.39278514 C-1.4362403 282.07516831 -1.41498099 262.75755457 -1.39282227 243.43994141 C-1.39187433 242.61181811 -1.39092639 241.78369482 -1.38994972 240.93047689 C-1.36828909 222.0269435 -1.34545236 203.12341203 -1.32029057 184.21988297 C-1.31870679 183.02866596 -1.31870679 183.02866596 -1.31709102 181.81338396 C-1.30758381 174.67043554 -1.29802904 167.52748718 -1.28822399 160.38453916 C-1.26377409 142.57051169 -1.2422537 124.75648881 -1.22795228 106.94245007 C-1.21798503 94.53936098 -1.20484728 82.13627912 -1.18830519 69.733197 C-1.17946034 63.01249311 -1.17242984 56.29179826 -1.16966438 49.57108879 C-1.16712012 43.42437769 -1.16007278 37.27768915 -1.14939214 31.13098696 C-1.14634261 28.90263252 -1.1449941 26.674275 -1.14548045 24.44591853 C-1.14590797 21.42621308 -1.14026921 18.40657828 -1.13307858 15.38688278 C-1.13467294 14.51416971 -1.1362673 13.64145663 -1.13790998 12.74229771 C-1.12079434 8.38116589 -0.87493575 4.29443678 0 0 Z " fill="#DFDFE0" transform="translate(836,134)"/>
<path d="M0 0 C2.36295267 2.36295267 2.25069585 2.79160211 2.25480902 5.99302208 C2.26073703 6.83463232 2.26666503 7.67624255 2.27277267 8.54335612 C2.26912299 9.47503983 2.26547331 10.40672354 2.26171303 11.36664009 C2.26770712 12.84911697 2.26770712 12.84911697 2.27382231 14.36154288 C2.2848918 17.71154701 2.28158197 21.06138857 2.2784729 24.41140747 C2.28347037 26.82201891 2.28934453 29.23262868 2.29602563 31.64323604 C2.30858111 36.90405307 2.31488551 42.16482353 2.31578636 47.42565155 C2.31715928 55.24836716 2.32992395 63.07103474 2.3450741 70.89373431 C2.37023068 84.05111086 2.38607219 97.20848337 2.39665604 110.36587906 C2.40716986 123.39861038 2.42179249 136.43132634 2.44193649 149.46404648 C2.44318536 150.27353552 2.44443423 151.08302456 2.44572094 151.91704357 C2.45208445 156.02781197 2.45852169 160.13858026 2.46498732 164.24934851 C2.51068397 193.38709022 2.54711704 222.52483692 2.578125 251.66259766 C2.60827519 279.97445404 2.6426073 308.28630029 2.68261719 336.59814453 C2.68384819 337.47041013 2.68507919 338.34267573 2.6863475 339.24137362 C2.69871406 348.00080005 2.71116581 356.76022635 2.72367998 365.51965257 C2.74917223 383.36457197 2.77409576 401.20949216 2.79867554 419.05441284 C2.79980645 419.87494379 2.80093736 420.69547474 2.80210253 421.54087027 C2.87759339 476.36056843 2.93978418 531.1802832 3 586 C0 584 0 584 -0.50749105 581.76197654 C-1.15833248 570.58249528 -1.13596273 559.41024393 -1.12025452 548.21488953 C-1.12069101 545.89790628 -1.12156736 543.58092309 -1.12284368 541.26394016 C-1.12507329 534.91982561 -1.12108839 528.57572804 -1.11606562 522.23161566 C-1.11169006 516.08591854 -1.1130269 509.94022122 -1.11374746 503.79452302 C-1.11505852 491.2300092 -1.1117308 478.66550067 -1.10573006 466.10098839 C-1.09980657 453.66627667 -1.09596281 441.23156714 -1.09487724 428.79685402 C-1.0948085 428.02277978 -1.09473976 427.24870555 -1.09466894 426.45117452 C-1.09433059 422.51980588 -1.09402921 418.58843723 -1.09374207 414.65706859 C-1.09164343 386.83428447 -1.08491105 359.01150321 -1.07543945 331.1887207 C-1.06625039 304.16463232 -1.05916905 277.14054472 -1.05493164 250.11645508 C-1.05480011 249.28298766 -1.05466859 248.44952025 -1.05453308 247.59079625 C-1.05321452 239.22053075 -1.05193871 230.85026525 -1.05069422 222.47999975 C-1.04815822 205.42984781 -1.04533697 188.37969593 -1.04234314 171.32954407 C-1.04220585 170.54566053 -1.04206856 169.76177699 -1.04192711 168.9541394 C-1.0327314 116.63609173 -1.01686593 64.3180457 -1 12 C-0.67 12 -0.34 12 0 12 C0 8.04 0 4.08 0 0 Z " fill="#B5B6B8" transform="translate(2,130)"/>
<path d="M0 0 C-4.96761503 3.97409202 -7.6875047 4.31045059 -14 4 C-14.99 4.33 -15.98 4.66 -17 5 C-18.76485615 5.06024158 -20.5321119 5.05876688 -22.29760742 5.02172852 C-23.37850143 5.00163223 -24.45939545 4.98153595 -25.57304382 4.96083069 C-26.73874405 4.93379562 -27.90444427 4.90676056 -29.10546875 4.87890625 C-30.29981033 4.85529526 -31.49415192 4.83168427 -32.72468567 4.80735779 C-36.54574348 4.73068089 -40.36660068 4.64667346 -44.1875 4.5625 C-46.77538075 4.50928338 -49.36327135 4.45654295 -51.95117188 4.40429688 C-58.30090583 4.27506022 -64.65049035 4.13980195 -71 4 C-70.67 3.34 -70.34 2.68 -70 2 C-69.36932114 1.99191315 -68.73864227 1.98382629 -68.08885193 1.97549438 C-61.45235945 1.88862296 -54.81613782 1.78909672 -48.17993164 1.68261719 C-45.7118794 1.64461991 -43.24377727 1.60971933 -40.77563477 1.578125 C-22.56928545 1.3973282 -22.56928545 1.3973282 -4.51196289 -0.68212891 C-2 -1 -2 -1 0 0 Z " fill="#C7C8C9" transform="translate(717,832)"/>
<path d="M0 0 C0.99 0.495 0.99 0.495 2 1 C2.57836914 3.21801758 2.57836914 3.21801758 3.03515625 6.14453125 C3.28942383 7.75038086 3.28942383 7.75038086 3.54882812 9.38867188 C3.71833984 10.51853516 3.88785156 11.64839844 4.0625 12.8125 C4.23587891 13.89982422 4.40925781 14.98714844 4.58789062 16.10742188 C6.69812592 29.71480119 7.13463317 43.01475567 7.0625 56.75 C7.05747197 58.42968616 7.05291138 60.10937378 7.04882812 61.7890625 C7.03793264 65.85941196 7.02074084 69.92968929 7 74 C4.04464391 71.04464391 4.68284615 67.84216403 4.65625 63.87890625 C4.6416272 63.06437485 4.62700439 62.24984344 4.61193848 61.41062927 C4.56535785 58.79463686 4.53126857 56.17871748 4.5 53.5625 C4.43276314 39.2993782 4.43276314 39.2993782 2.46337891 25.20776367 C1.81320249 22.11000535 1.61284328 19.03117906 1.4375 15.875 C1.10935838 10.55441806 0.63865937 5.29174906 0 0 Z " fill="#2DA0CD" transform="translate(521,519)"/>
<path d="M0 0 C0.33 0 0.66 0 1 0 C1.36609285 8.17012082 0.00783368 15.8161988 -1.5625 23.8125 C-1.69327942 24.49176544 -1.82405884 25.17103088 -1.95880127 25.87088013 C-4.24849626 37.65797196 -7.51964847 48.85214308 -12 60 C-13.0939007 56.71829791 -12.95781218 56.13098544 -11.92578125 53 C-11.6721582 52.20489014 -11.41853516 51.40978027 -11.15722656 50.59057617 C-10.8784668 49.73568604 -10.59970703 48.8807959 -10.3125 48 C-5.99319545 34.18048293 -3.06676631 20.28434582 -1.39453125 5.90625 C-1 3 -1 3 0 0 Z " fill="#3268E2" transform="translate(526,594)"/>
<path d="M0 0 C0.33 0 0.66 0 1 0 C1.01981934 1.21059082 1.03963867 2.42118164 1.06005859 3.66845703 C1.13633336 8.1750104 1.2250168 12.68125009 1.31738281 17.1875 C1.35558233 19.13502798 1.39045075 21.08262435 1.421875 23.03027344 C1.46772196 25.83553446 1.52568366 28.64032839 1.5859375 31.4453125 C1.59748871 32.31116974 1.60903992 33.17702698 1.62094116 34.06912231 C1.73502776 38.77963266 2.29583439 42.5489219 4 47 C4.1953125 49.7734375 4.1953125 49.7734375 4.125 52.375 C4.10695313 53.24898437 4.08890625 54.12296875 4.0703125 55.0234375 C4.03550781 56.00183594 4.03550781 56.00183594 4 57 C1 55 1 55 0.49047852 52.7277832 C-0.14105558 41.88187161 -0.11117153 31.04859888 -0.0625 20.1875 C-0.05747317 18.22330844 -0.05291237 16.25911562 -0.04882812 14.29492188 C-0.03792035 9.52991649 -0.02072143 4.7649724 0 0 Z " fill="#E3E3E4" transform="translate(1,659)"/>
<path d="M0 0 C0.66 0.33 1.32 0.66 2 1 C1.2059375 1.77085937 0.411875 2.54171875 -0.40625 3.3359375 C-1.43776041 4.34869317 -2.46899627 5.36172852 -3.5 6.375 C-4.02464844 6.88289062 -4.54929687 7.39078125 -5.08984375 7.9140625 C-6.43153181 9.23832604 -7.71995815 10.61605865 -9 12 C-9 12.66 -9 13.32 -9 14 C-9.66 14 -10.32 14 -11 14 C-11.84757725 18.40605632 -12.13475983 22.57785895 -12.125 27.0625 C-12.12757813 28.24972656 -12.13015625 29.43695312 -12.1328125 30.66015625 C-12.01692665 33.57434445 -11.67386177 36.17085017 -11 39 C-13 38 -13 38 -14.125 35.6875 C-16.31753783 26.44751914 -15.51904732 19.13843156 -10.93359375 10.78125 C-7.91075227 6.43324366 -4.20568065 3.17762538 0 0 Z " fill="#813DCA" transform="translate(580,638)"/>
<path d="M0 0 C0.33 0.66 0.66 1.32 1 2 C-2.10152806 7.04288353 -5.74806878 11.08264165 -9.9375 15.25 C-10.54529297 15.87390625 -11.15308594 16.4978125 -11.77929688 17.140625 C-14.96944308 20.33421257 -17.53719645 22.74668895 -22 24 C-19.73073987 20.87976732 -17.33193041 18.37966114 -14.375 15.9375 C-8.86679749 11.26072429 -4.50180663 5.61803327 0 0 Z " fill="#7441DA" transform="translate(604,614)"/>
<path d="M0 0 C0.33 0 0.66 0 1 0 C1.22220512 6.82586363 0.44646056 12.90194007 -1 19.5625 C-1.19078125 20.47580078 -1.3815625 21.38910156 -1.578125 22.33007812 C-2.04411929 24.55520087 -2.51816975 26.77826276 -3 29 C-3.33 29 -3.66 29 -4 29 C-2.23978202 6.71934605 -2.23978202 6.71934605 0 0 Z " fill="#2C8AE5" transform="translate(526,594)"/>
<path d="M0 0 C1 3 1 3 -0.22265625 5.5234375 C-3.68895534 10.89583312 -6.75797174 15.29222391 -12 19 C-12.66 18.67 -13.32 18.34 -14 18 C-13.48050781 17.52691406 -12.96101562 17.05382812 -12.42578125 16.56640625 C-7.94877263 12.32110972 -4.6985394 8.29575752 -1.91015625 2.78515625 C-1 1 -1 1 0 0 Z " fill="#E0C51D" transform="translate(542,306)"/>
<path d="M0 0 C0.99 0.495 0.99 0.495 2 1 C2.6328125 3.984375 2.6328125 3.984375 3.125 7.75 C3.29257812 8.98234375 3.46015625 10.2146875 3.6328125 11.484375 C3.9337262 14.36546366 4.07723474 17.10921414 4 20 C3.34 20 2.68 20 2 20 C0.57997892 13.2168636 -0.22731216 6.93302093 0 0 Z " fill="#E4CD2D" transform="translate(311,597)"/>
<path d="M0 0 C0.33 0 0.66 0 1 0 C1.26554687 0.95261719 1.53109375 1.90523437 1.8046875 2.88671875 C2.33449219 4.76810547 2.33449219 4.76810547 2.875 6.6875 C3.22304688 7.92886719 3.57109375 9.17023437 3.9296875 10.44921875 C4.90016512 13.91385341 4.90016512 13.91385341 6.1953125 16.76953125 C7 19 7 19 6 22 C5.01315119 19.62794139 4.0354245 17.25276513 3.0625 14.875 C2.78470703 14.20984375 2.50691406 13.5446875 2.22070312 12.859375 C0.62091221 8.92735878 -0.59145404 5.26703556 -1 1 C-0.67 0.67 -0.34 0.34 0 0 Z " fill="#ECC91F" transform="translate(319,635)"/>
<path d="M0 0 C-3.03829533 2.70983097 -4.7020353 3.9804148 -8.84765625 4.04296875 C-11.58496244 3.77806815 -14.28632865 3.4442309 -17 3 C-17 2.67 -17 2.34 -17 2 C-14.69 2 -12.38 2 -10 2 C-10 1.34 -10 0.68 -10 0 C-2.25 -1.125 -2.25 -1.125 0 0 Z " fill="#C1C2C4" transform="translate(717,832)"/>
<path d="M0 0 C0 4.06354909 -1.52984762 5.05170581 -4.25 8 C-5.03890625 8.86625 -5.8278125 9.7325 -6.640625 10.625 C-8.6648172 12.66259744 -10.65017084 14.36158701 -13 16 C-11.75874864 11.3108282 -9.28911734 9.32717538 -5.55859375 6.52734375 C-3.82757312 5.09799356 -3.82757312 5.09799356 -3.47265625 2.87890625 C-3.31667969 2.25886719 -3.16070313 1.63882813 -3 1 C-2.01 0.67 -1.02 0.34 0 0 Z " fill="#7F3ACC" transform="translate(654,639)"/>
<path d="M0 0 C1.01936725 3.05810176 1.00186825 4.49801207 0.625 7.625 C0.53476563 8.42164063 0.44453125 9.21828125 0.3515625 10.0390625 C0 12 0 12 -1 13 C-1.36760731 15.32817964 -1.70241581 17.6618385 -2 20 C-2.33 20 -2.66 20 -3 20 C-3.24613739 13.47735909 -2.53020433 7.35537418 -1 1 C-0.67 0.67 -0.34 0.34 0 0 Z " fill="#D1731F" transform="translate(156,527)"/>
<path d="M0 0 C1.15941038 3.47823115 0.70820884 5.45895578 0 9 C-0.99 9 -1.98 9 -3 9 C-3 6.36 -3 3.72 -3 1 C-2.01 0.67 -1.02 0.34 0 0 Z " fill="#DFDFE1" transform="translate(835,714)"/>
<path d="M0 0 C3.6607519 1.22025063 3.92339441 2.126491 5.6875 5.4375 C6.34298828 6.64212891 6.34298828 6.64212891 7.01171875 7.87109375 C8 10 8 10 8 12 C7.34 12 6.68 12 6 12 C4.4921875 9.8828125 4.4921875 9.8828125 2.875 7.125 C2.33617187 6.22007812 1.79734375 5.31515625 1.2421875 4.3828125 C0 2 0 2 0 0 Z " fill="#2D94ED" transform="translate(591,508)"/>
<path d="M0 0 C0.99 0.33 1.98 0.66 3 1 C1.56771184 2.31818554 0.12897516 3.62936704 -1.3125 4.9375 C-2.11300781 5.66839844 -2.91351562 6.39929688 -3.73828125 7.15234375 C-6 9 -6 9 -9 10 C-9 9.34 -9 8.68 -9 8 C-7.5390625 6.81640625 -7.5390625 6.81640625 -5.625 5.5625 C-2.91409131 3.78311755 -1.87203979 2.80805969 0 0 Z " fill="#8B39CA" transform="translate(636,657)"/>
<path d="M0 0 C0.99 0.495 0.99 0.495 2 1 C2.66796875 3.21484375 2.66796875 3.21484375 3.1875 5.9375 C3.36667969 6.83339844 3.54585938 7.72929688 3.73046875 8.65234375 C4 11 4 11 3 13 C1.32889958 10.03821227 0.67317248 7.62928808 0.375 4.25 C0.30023438 3.45078125 0.22546875 2.6515625 0.1484375 1.828125 C0.09945313 1.22484375 0.05046875 0.6215625 0 0 Z " fill="#EDD42F" transform="translate(314,618)"/>
<path d="M0 0 C0.66 0.33 1.32 0.66 2 1 C0.125 6.75 0.125 6.75 -1 9 C-1.66 9 -2.32 9 -3 9 C-2.01 6.03 -1.02 3.06 0 0 Z " fill="#DC6F31" transform="translate(162,503)"/>
<path d="M0 0 C3.63 0.66 7.26 1.32 11 2 C7.1496895 4.56687367 5.41430237 3.83288724 1 3 C0.67 2.01 0.34 1.02 0 0 Z " fill="#B6B5B8" transform="translate(113,829)"/>
<path d="M0 0 C0.33 0.66 0.66 1.32 1 2 C-0.98 4.97 -2.96 7.94 -5 11 C-5.33 10.34 -5.66 9.68 -6 9 C-4.02 6.03 -2.04 3.06 0 0 Z " fill="#743FD3" transform="translate(664,624)"/>
<path d="M0 0 C1.57432497 3.14864995 0.71895552 5.64487425 0 9 C-0.99 9.66 -1.98 10.32 -3 11 C-2.44894091 7.0507432 -1.61064629 3.65079826 0 0 Z " fill="#E07F20" transform="translate(327,474)"/>
<path d="M0 0 C1.09898702 3.29696105 0.87124444 4.40494903 0.0625 7.6875 C-0.22947266 8.89986328 -0.22947266 8.89986328 -0.52734375 10.13671875 C-0.68332031 10.75160156 -0.83929688 11.36648438 -1 12 C-1.66 12 -2.32 12 -3 12 C-2.69106068 10.3743193 -2.3777305 8.74947252 -2.0625 7.125 C-1.88847656 6.22007812 -1.71445312 5.31515625 -1.53515625 4.3828125 C-1 2 -1 2 0 0 Z " fill="#D67135" transform="translate(333,449)"/>
<path d="M0 0 C0.99 0.33 1.98 0.66 3 1 C0.69 2.65 -1.62 4.3 -4 6 C-4.66 5.34 -5.32 4.68 -6 4 C-3 2 -3 2 0 2 C0 1.34 0 0.68 0 0 Z " fill="#903ACC" transform="translate(624,667)"/>
</svg>
